<svg xmlns="http://www.w3.org/2000/svg" viewBox="0 0 24 24" fill="currentColor">
  <path d="M24 12.073c0-6.627-5.373-12-12-12s-12 5.373-12 12c0 5.636 3.894 10.357 9.176 11.515.674.125.925-.296.925-.66v-2.178c-3.668.805-4.462-1.696-4.462-1.696-.607-1.543-1.478-1.944-1.478-1.944-1.208-.825.093-.806.093-.806 1.337.093 2.04 1.37 2.04 1.37 1.19 2.02 3.11 1.44 3.88 1.1.12-.85.465-1.44.847-1.78-2.948-.332-6.05-1.477-6.05-6.59 0-1.455.525-2.65 1.387-3.576-.14-.342-.607-1.745.14-3.616 0 0 1.127-.367 3.68 1.38.288-.08.592-.12.902-.12.31 0 .614.04.912.12 2.553-1.747 3.678-1.38 3.678-1.38.748 1.871.282 3.274.14 3.616.86.926 1.385 2.12 1.385 3.576 0 5.126-3.108 6.253-6.06 6.587.477.41.903 1.22.903 2.46v3.62c0 .362.25.793.932.654C20.087 22.423 24 17.705 24 12.073z"/>
</svg>